<?xml version="1.0" encoding="UTF-8"?> <svg xmlns="http://www.w3.org/2000/svg" width="500" height="137" viewBox="0 0 500 137" fill="none"><path d="M218.641 48.7236C224.034 48.7236 228.475 50.6054 231.964 53.1144L235.453 46.5283C231.012 43.0784 225.937 40.8831 218.324 40.8831C201.513 40.8831 191.362 52.4871 191.362 65.9729C191.362 79.4586 201.513 91.0627 218.324 91.0627C225.937 91.0627 230.695 88.8673 235.453 85.4175L232.281 78.8314C228.792 81.3404 224.351 83.2221 218.959 83.2221C207.857 83.2221 201.195 75.3815 201.195 65.9729C200.878 56.5642 207.539 48.7236 218.641 48.7236Z" fill="#00917D"></path><path d="M274.469 65.3455H263.684V49.0371H274.469C278.91 49.0371 282.082 52.487 282.082 57.1913C282.082 61.8957 279.227 65.3455 274.469 65.3455ZM294.453 87.2991C294.453 86.9855 288.109 79.7721 281.448 71.618C287.475 69.4226 290.964 64.091 290.964 57.1913C290.964 48.7235 285.254 41.5102 275.421 41.5102H254.168V90.4353H263.05V72.5588H271.297C278.593 81.3402 286.84 91.0625 287.475 92.0034C288.426 93.2579 297.308 104.235 312.534 104.235C314.437 104.235 316.34 103.921 317.926 103.607L316.657 96.0805C303.335 98.5895 294.77 87.6127 294.453 87.2991Z" fill="#00917D"></path><path d="M176.454 71.9316V80.3994C173.282 81.9675 169.793 82.9084 165.986 82.9084C154.884 82.9084 148.54 75.0678 148.54 65.9728C148.54 57.1914 154.884 48.7235 165.669 48.7235C170.11 48.7235 174.551 49.978 179.309 53.1143L183.432 46.5282C178.357 42.7647 172.647 40.5694 165.669 40.5694C150.443 40.5694 139.341 51.8598 139.341 65.9728C139.341 80.0858 150.443 91.0626 165.669 91.0626C170.427 91.0626 177.723 90.1217 184.384 83.8493V64.7183H162.814V71.9316H176.454Z" fill="#00917D"></path><path d="M303.651 41.5102V83.5356C305.237 85.4173 308.727 87.2991 312.533 87.6127V41.5102H303.651Z" fill="#00917D"></path><path d="M414.038 90.4353H446.075V83.222H422.92V70.0498H442.903V62.8365H422.92V48.7235H446.075V41.5102H414.038V90.4353Z" fill="#00917D"></path><path d="M475.575 65.3456H464.791V49.0372H475.575C480.016 49.0372 483.188 52.4871 483.188 57.1914C483.188 61.8958 480.016 65.3456 475.575 65.3456ZM498.731 83.2221C491.753 84.4766 486.995 78.8314 486.995 78.8314C486.995 78.8314 484.457 75.6951 481.285 72.2453C487.946 70.3636 492.07 64.7184 492.07 57.505C492.07 49.0372 486.36 41.8239 476.844 41.8239H455.592V90.749H464.473V72.5589H471.452C475.575 77.5769 480.016 82.9084 480.333 83.2221C481.285 84.1629 486.678 91.0626 496.511 91.0626C497.78 91.0626 499.048 90.749 500 90.4354L498.731 83.2221Z" fill="#00917D"></path><path d="M325.221 90.4353H357.259V83.222H334.42V70.0498H354.404V62.8365H334.42V48.7235H357.259V41.5102H325.221V90.4353Z" fill="#00917D"></path><path d="M387.393 83.2221H375.974V69.1091H383.586C392.468 69.1091 395.006 72.8725 395.006 76.9496C395.006 80.7131 391.834 83.2221 387.393 83.2221ZM375.974 48.7236H385.172C389.296 48.7236 392.785 50.919 392.785 54.9961C392.785 58.7595 390.248 62.523 382.318 62.523H376.291V48.7236H375.974ZM393.102 65.3456C399.129 63.4639 401.984 59.0731 401.984 54.6824C401.984 46.5283 394.688 41.8239 385.172 41.8239H367.092V90.749H387.393C397.543 90.749 404.522 85.4174 404.522 77.5769C404.204 71.618 400.081 66.2865 393.102 65.3456Z" fill="#00917D"></path><path d="M41.9599 17.675C35.933 15.4796 38.1534 9.52079 38.1534 9.52079C34.347 11.4025 33.3954 13.9115 34.347 17.0477C27.6858 17.675 27.0514 22.6929 28.3202 25.5155C30.2234 22.0657 34.9814 20.1839 39.7394 21.1248C42.5943 21.7521 48.6211 23.3202 53.0619 30.2199L56.234 28.3381C50.8415 20.4976 45.4491 18.3022 41.9599 17.675ZM72.0941 16.1069C70.1908 12.3434 65.1156 13.5979 64.164 15.166C64.164 14.2251 64.164 12.9706 64.164 12.0298C64.164 5.75732 60.3576 0.425735 60.3576 0.425735C60.3576 0.425735 56.5512 5.44369 56.5512 12.0298C56.5512 13.2843 56.5512 14.2251 56.5512 15.166C55.5996 13.5979 50.8415 12.657 48.6211 16.1069C51.7931 15.7932 56.5512 19.2431 58.1372 21.7521L60.0404 24.5747C60.0404 24.5747 61.3092 22.6929 61.9436 21.7521C64.164 19.2431 67.9704 15.7932 72.0941 16.1069ZM92.7122 25.5155C93.981 23.0065 93.3466 17.675 86.6854 17.3613C87.637 14.2251 86.6854 11.7161 82.8789 9.83441C82.8789 9.83441 85.0994 15.7932 79.0725 17.9886H79.3897C75.5833 18.6158 70.1909 21.1248 65.4328 28.3381L68.6048 30.2199C73.3629 23.3202 79.0725 21.7521 81.9273 21.1248C86.3682 19.8703 90.809 22.0657 92.7122 25.5155ZM52.7447 93.258C51.7931 92.0035 50.8415 90.749 49.8899 89.4945C49.5727 88.8672 48.9383 89.1809 48.3039 89.1809C47.6695 89.4945 47.6695 90.1217 47.6695 90.4354C47.6695 92.3171 47.6695 93.8852 47.6695 95.7669C47.6695 96.7078 47.6695 97.6487 47.6695 98.5895L47.0351 98.2759C44.1803 97.0214 41.0083 95.7669 38.1534 94.5125C37.2018 94.1988 36.5674 94.8261 36.8846 95.4533C36.8846 95.7669 37.2018 96.3942 37.2018 96.7078V97.3351C36.8846 98.2759 36.8846 98.2759 37.519 99.2168L37.8362 99.844C37.8362 100.158 37.8362 100.785 37.8362 101.412C37.8362 103.294 38.7878 104.235 40.0566 105.176C42.2771 106.43 44.4975 107.685 46.7179 108.625C47.3523 108.939 48.3039 109.253 49.2555 109.566C50.5243 109.88 51.7931 108.939 51.7931 107.685C51.7931 107.057 51.7931 106.43 51.7931 106.116C51.4759 102.98 51.1587 99.5304 50.8415 96.3942C50.8415 95.1397 50.8415 94.1988 50.8415 92.9443C51.1587 93.258 51.7931 93.258 52.4275 93.5716C52.7447 94.1988 53.0619 93.5716 52.7447 93.258ZM64.7984 112.703C66.3844 111.448 66.3844 109.253 66.0672 107.685C65.75 106.43 65.1156 105.176 64.7984 103.921C64.164 102.353 63.5296 101.099 62.8952 99.5304L62.578 98.9032C62.2608 97.6487 62.2608 96.0806 61.9436 94.8261C61.9436 94.1988 61.9436 93.258 61.3092 92.6307C60.992 92.0035 60.6748 91.3762 60.6748 90.749L60.0404 90.1217V90.749C60.0404 91.3762 60.0404 92.0035 59.406 92.6307C59.0888 93.258 59.0888 94.1988 58.7716 94.8261C58.4544 96.0806 58.4544 97.335 58.1372 98.9032L57.82 99.5304C57.1856 101.099 56.5512 102.353 55.9168 103.921C55.2824 105.176 54.9651 106.43 54.6479 107.685C54.0135 109.253 54.3307 111.448 55.9168 112.703C57.1856 113.957 59.0888 116.152 60.3576 116.152C61.6264 116.152 63.5296 113.957 64.7984 112.703ZM82.8789 95.1397C80.0241 96.3942 76.8521 97.6487 73.9973 98.9032L73.3629 99.2168C73.3629 98.2759 73.3629 97.3351 73.3629 96.3942C73.3629 94.5125 73.3629 92.9443 73.3629 91.0626C73.3629 90.4354 73.3629 90.1217 72.7285 89.8081C72.0941 89.4945 71.7769 89.4945 71.1425 90.1217C70.1908 91.3762 69.2393 92.6307 68.2876 93.8852C67.9704 94.1988 68.2876 94.8261 68.922 94.5125C69.5564 94.5125 69.8736 94.1988 70.508 93.8852C70.508 94.8261 70.508 96.0806 70.508 97.3351C70.1908 100.471 69.8736 103.921 69.5564 107.057C69.5564 107.685 69.5564 108.312 69.5564 108.625C69.5564 109.88 70.8253 110.821 72.0941 110.507C73.0457 110.194 73.6801 109.88 74.6317 109.566C76.8521 108.312 79.0725 107.057 81.2929 106.116C82.8789 105.176 83.8305 104.235 83.5133 102.353C83.5133 101.726 83.5133 101.412 83.5133 100.785L83.8305 100.158C84.7822 99.5304 84.7822 99.5304 84.1477 98.2759V97.6487C84.1477 97.3351 84.465 96.7078 84.465 96.3942C84.465 95.1397 83.8306 94.8261 82.8789 95.1397ZM106.986 39.6285L98.1046 47.4691L100.325 50.2917L106.035 45.5874L106.352 49.0372C106.669 53.1143 106.352 55.9369 102.863 59.0731L99.0563 62.523C97.4702 63.7775 96.5186 64.4047 96.5186 64.4047C96.8358 64.7183 98.1047 66.9137 98.4219 67.5409C98.4219 67.5409 100.008 66.6001 100.959 65.6592C100.959 65.6592 103.814 70.9908 97.4702 76.3224H97.153C91.1262 81.3403 82.2445 87.2991 82.2445 87.2991C81.6101 87.6128 80.9757 87.9264 80.3413 87.2991C79.3897 86.3583 78.4381 85.4174 78.4381 85.4174L75.9005 87.9264C75.9005 87.9264 75.9005 88.24 76.5349 88.8672C77.4865 89.4945 79.7069 91.6898 80.0241 92.0035C80.6585 92.6307 81.2929 92.6307 81.6101 92.3171C83.1961 91.3762 90.4918 86.0446 90.809 86.0446C91.1262 86.9855 91.4434 89.4945 91.4434 89.4945L93.6638 88.8672L93.981 89.8081C94.2982 91.6898 94.9326 93.5716 95.2498 95.4533C95.567 98.5895 92.7122 103.607 86.6854 107.371C82.2445 110.194 76.2177 112.075 73.6801 113.33C69.5564 115.212 63.8468 118.348 60.6748 121.17L60.3576 121.484L60.0404 120.543C56.5512 117.721 50.8415 114.584 47.0351 112.703C45.1319 111.762 41.3255 110.194 37.519 108.312C32.1266 105.803 30.5406 99.2168 31.175 95.1397C31.8094 91.6898 33.0782 88.8672 35.2986 86.3583C37.519 83.5357 40.3738 81.3403 43.5459 79.7722C45.1319 78.8313 46.7179 78.5177 48.3039 77.5768C50.8415 76.3224 53.0619 75.6951 55.5996 74.127C56.8684 73.4998 58.1372 72.2453 59.0888 71.3044C61.3092 69.4227 62.578 68.1682 64.4812 65.9728C65.75 64.0911 67.336 61.8957 67.6532 59.7004C68.2876 56.5641 68.2876 53.4279 66.7016 50.9189C66.0672 49.9781 64.7984 48.7236 63.2124 48.7236C63.2124 48.7236 60.992 48.41 60.3576 50.6053C62.2608 52.8007 62.578 55.9369 60.0404 57.8186C59.406 58.1322 58.4544 57.8186 58.1372 57.505V56.8778C58.4544 55.6233 58.1372 54.6824 57.5028 54.3688C56.5512 53.4279 54.9651 53.4279 54.0135 54.6824C53.6963 55.6233 53.3791 55.9369 53.6963 56.8778C54.0135 58.4459 54.9651 58.4459 56.234 59.0731C56.8684 59.3867 57.82 59.7004 58.1372 60.3276C58.7716 60.9549 58.7716 62.2093 58.7716 63.1502C58.7716 65.032 57.82 68.4818 54.6479 71.3044C54.3307 71.618 54.0135 71.9316 53.6963 71.618C53.3791 71.3044 53.3791 70.9908 53.3791 70.6771C53.3791 70.0499 53.3791 69.4227 53.6963 68.7954C54.0135 67.5409 53.3791 65.9728 53.3791 64.7183V64.4047C54.0135 64.0911 54.6479 64.0911 55.2824 63.7775C56.5512 63.4638 56.5512 61.8957 55.5996 61.2685C54.6479 60.3276 52.4275 59.7004 51.1587 60.014L49.8899 59.3867C47.0351 55.9369 47.6695 51.5462 49.8899 48.41C52.1103 45.2737 55.5996 42.7648 58.4544 41.8239C63.8468 39.9422 71.1425 40.2558 75.5833 48.41C79.0725 54.6824 76.8521 63.7775 73.0457 70.3635C71.7769 72.2453 71.4597 73.4997 70.508 75.3815C67.9704 80.3994 69.5564 81.6539 71.4597 81.9676C73.9973 82.5948 77.4865 80.0858 79.7069 75.0679L80.0241 74.4406V74.127L80.3413 73.4997V71.9316C80.9757 69.7363 81.2929 67.5409 81.2929 65.0319C81.2929 61.5821 80.3413 58.4459 80.6585 56.2505C80.6585 54.996 80.9757 53.1143 81.6101 52.4871C86.0509 45.901 94.6154 36.4923 105.4 25.5155C105.717 25.2019 106.352 24.5747 106.669 24.261C106.986 23.9474 107.304 23.6338 107.938 23.0065C107.304 22.3793 107.621 22.0657 108.255 21.7521L108.572 21.4384C108.89 21.1248 109.207 20.8112 109.524 20.4976L109.841 20.1839C110.158 19.8703 110.793 19.2431 111.11 18.9295L112.062 28.0245C112.379 32.4152 111.11 35.8651 106.986 39.6285ZM40.3738 65.0319C40.3738 69.4227 41.6427 73.4997 42.9115 76.0087C39.105 78.2041 35.6158 80.7131 33.0782 83.8493L23.2449 75.6951C17.2181 70.3635 19.7557 65.0319 19.7557 65.0319C21.0245 65.9728 22.2933 66.9137 22.2933 66.9137C22.6105 66.6001 23.8793 64.4047 24.1965 63.7775C24.1965 63.7775 23.2449 63.1502 21.6589 61.8957L17.8525 58.4459C14.3633 55.3097 14.0461 52.4871 14.3633 48.41L14.6805 44.9601L20.3901 49.6644L22.9277 47.4691L14.0461 39.6285C9.92244 35.8651 8.65363 32.4152 8.97083 28.0245L9.92244 18.9295C10.2396 19.2431 10.874 19.5567 11.1912 20.1839L11.5085 20.4976C11.8257 20.8112 12.1429 21.1248 12.4601 21.4384L12.7773 21.7521C13.0945 22.0657 13.4117 22.3793 14.0461 22.6929H14.3633C14.6805 23.0065 14.9977 23.3202 15.6321 23.9474C15.6321 24.5747 16.2665 24.8883 16.5837 25.5155C27.3686 36.4923 35.933 45.901 40.3738 52.4871C41.0083 53.1143 41.3255 54.6824 41.3255 56.2505C41.3255 58.1322 40.3738 61.2685 40.3738 65.0319ZM114.282 35.2378C115.234 33.0425 115.551 30.5335 115.234 27.3973L114.282 18.3022C114.282 17.0477 113.33 12.3434 113.33 11.0889C112.062 12.3434 110.158 14.2251 108.255 16.1069C105.4 18.9295 102.545 21.7521 100.008 24.5747L60.3576 35.5514L21.0245 24.5747C18.4869 22.0657 15.6321 19.2431 12.4601 16.4205C10.5568 14.2251 8.65363 12.3434 7.38482 11.0889C7.06762 12.657 6.43322 17.0477 6.43322 18.6158L5.48161 27.3973C5.16441 30.5335 5.48161 32.7288 6.43322 35.2378C7.38482 37.7468 8.97083 39.6285 11.5085 42.1375C11.1912 43.7056 11.1912 45.5874 11.1912 45.5874L10.874 48.0963C10.5568 52.487 10.874 56.8778 15.6321 61.2685L16.5837 62.2094C14.9977 68.1682 13.4117 74.4406 12.4601 80.7131C10.5568 92.6307 14.6805 101.726 25.4653 107.057C31.175 109.88 42.5943 114.584 47.3523 117.093C52.4275 119.602 58.4544 123.366 59.7232 124.307H60.3576C61.6264 123.366 67.6532 119.602 72.7285 117.093C77.8037 114.584 89.223 109.88 94.6154 107.057C105.083 101.726 109.524 92.6307 107.621 80.7131C106.669 74.4406 105.083 68.4818 103.497 62.2094L104.449 61.2685C109.207 56.8778 109.524 52.487 109.207 48.0963L108.89 45.5874C108.89 45.5874 108.572 43.7056 108.572 42.1375C111.744 39.9422 113.33 37.7468 114.282 35.2378ZM115.234 90.1217C115.234 99.844 107.938 106.744 107.938 106.744L107.304 107.371C106.035 108.625 104.449 109.88 102.545 111.134C99.3735 113.33 95.2498 114.584 90.809 116.466C88.9058 117.093 87.3198 117.721 85.4165 118.661C78.1209 121.798 69.5564 125.561 60.3576 132.461C51.4759 125.561 42.9115 121.798 35.2986 118.661C33.3954 118.034 31.4922 117.093 29.9062 116.466C25.4653 114.898 21.6589 113.33 18.1697 111.134C16.2665 109.88 14.6805 108.625 13.4117 107.371L13.0945 107.057C13.0945 107.057 5.48161 100.158 5.79881 90.4354C4.8472 91.0626 -3.71725 99.5304 6.11601 106.43C6.11601 106.43 -0.862434 106.43 0.0891727 114.584C0.0891727 114.584 7.38482 108.625 14.6805 113.016C15.3149 113.643 16.2665 113.957 16.9009 114.584C20.0729 116.466 23.2449 117.721 28.6374 119.602C30.5406 120.229 32.1266 120.857 34.0298 121.798C34.9814 122.111 36.2502 122.738 37.2018 123.052C32.761 123.052 29.589 127.756 33.0782 132.774C33.0782 132.774 36.2502 123.993 47.0351 127.756C50.8415 129.952 58.7716 135.597 58.7716 135.597L60.3576 136.851L61.9436 135.597C61.9436 135.597 69.8736 129.952 73.6801 127.756C84.465 123.993 87.637 132.774 87.637 132.774C91.1262 127.756 87.9542 123.366 83.5133 123.052C84.7821 122.425 85.7338 122.111 86.6854 121.798C88.5886 121.17 90.4918 120.229 92.0778 119.602C97.4702 117.721 100.959 116.152 104.449 113.957C105.083 113.643 105.717 113.016 106.669 112.389C113.965 107.998 121.26 113.957 121.26 113.957C122.529 105.803 115.234 105.803 115.234 105.803C124.75 99.5304 116.502 90.749 115.234 90.1217Z" fill="#00917D"></path></svg> 